<?xml version="1.0" encoding="UTF-8"?>
<svg version="1.1" viewBox="0 0 2048 677" width="1280" height="1280" xmlns="http://www.w3.org/2000/svg">
<path transform="translate(0)" d="m0 0h2048v677h-2048z" fill="#21201F"/>
<path transform="translate(1842,284)" d="m0 0h14l12 2 12 5 10 7 11 11 9 15 5 15 2 10 1 10v10l-3 21-6 18-8 15-7 9 1 4 9 10 9 11 11 13 1 3-13 10-9 7-4-1-14-19-12-17-2-1-16 7-9 2h-22l-13-4-13-7-14-14-8-13-5-12-3-13-1-8v-18l2-16 5-18 8-16 11-14 7-7 14-9 12-5z" fill="#8DE2F4"/>
<path transform="translate(452,80)" d="m0 0h117l3 4v67l-2 15-5 14-7 12-12 13-12 10-11 7-6 8-2 6v31l7 7v1h-23l6-7 1-2v-28l-3-10-5-6-15-10-10-9-7-7-9-14-5-13-3-17v-68z" fill="#8DE2F4"/>
<path transform="translate(1536,332)" d="m0 0h2l5 24 10 50 5 21h2l5-15 13-43 3-10-1-7-3-10v-3l13-3 14-3h5l3 12 11 56 5 23v4l3-1 10-43 11-51 4-1 26 4 1 2-13 44-8 29-11 41-3 5-29 3h-10l-3-9-12-52-1-1-9 35-6 21-1 2-21 3-10 1h-9l-4-15-11-46-16-56v-4l13-3z" fill="#8DE2F4"/>
<path transform="translate(1451,330)" d="m0 0h12l10 2 10 6 7 7 5 12 1 7v12l-3 16-4 6-3 2-53 5h-8l2 8 6 12 6 5 6 2h11l12-4 10-6 5-4 11 12 1 3-9 11-10 8-12 6-10 3h-20l-10-4-9-6-8-9-6-13-3-13v-20l3-15 5-13 8-13 9-10 7-6 10-6z" fill="#8DE2F4"/>
<path transform="translate(1076,330)" d="m0 0h9l11 2 10 5 7 7 5 10 2 8v16l-3 14-7 8-54 5h-7l2 8 4 9 5 6 9 4h11l12-4 10-6 5-4 9 10v2h2l1 3-11 12-8 7-12 6-10 3h-20l-10-4-9-6-8-9-5-10-4-16v-20l4-18 6-14 9-13 10-10 11-7 8-3z" fill="#8DE2F4"/>
<path transform="translate(835,332)" d="m0 0h3l2 16v11l14-14 14-8 7-3 5-1h9l9 3 8 7 5 10 1 3v54l1 20v24l-28 6h-5v-17l2-44v-9l-2-15-4-5-6-2h-8l-13 4-7 4v29l2 40v7l-5 2-25 5h-4l1-28 1-19v-29l-3-31-1-14z" fill="#8DE2F4"/>
<path transform="translate(249,426)" d="m0 0h272l8 4 6 7 2 4 1 11-3 10-7 8-6 3h-230l-10-2v-2h-2l-2-2-7 3h-17l-2-4 3-2 9-1-1-2 84-1 169-1 4-2 3-6-1-6-4-4-6-1-235-1-14-1v-4l-12 1-2-4 3-3z" fill="#211817"/>
<path transform="translate(1250,332)" d="m0 0 3 2 13 65 6 26v3l3-1 12-51 8-36 3-8 9 1 20 3 1 3-13 42-11 39-9 33-1 3-13 2-23 2h-7l-4-14-13-52-16-54 3-2z" fill="#8DE2F4"/>
<path transform="translate(1833,315)" d="m0 0h18l11 4 10 9 7 14 4 20v28l-3 14-4 9-5-5-9-10-9-11-6-7-4 1-13 9 4 7 13 18 10 14 1 3-8 3h-11l-11-4-11-8-7-10-6-16-2-10-1-10v-13l2-15 3-10 6-11 9-8 8-4z" fill="#21201F"/>
<path transform="translate(183,498)" d="m0 0h276l-1 5-3 5-273 1-8 4-5 6-3 7v13l6 10 7 5 3 1 271 1 4 4 1 6h-275l-12-5-8-6-6-10-2-7v-12l4-11 9-10 8-5z" fill="#8DE2F4"/>
<path transform="translate(354,415)" d="m0 0h100l68 1 10 4 9 8 5 8 2 7v13l-4 11-9 10-9 5-9 2h-271l-1-2 3-7 1-1 269-1 10-4 6-7 3-10-1-11-6-9-6-4-8-2-269-1-3-9z" fill="#8DE2F4"/>
<path transform="translate(980,305)" d="m0 0h5l-2 24-1 9h29l1 3-2 15-1 3-28 1-1 56 2 10 3 3h12l9-1 1 8v10l-8 6-11 6-4 1h-13l-8-4-8-8-5-11-1-3v-17l1-16v-41h-16l1-13 1-7 3-1 11 1 1-27 9-3z" fill="#8DE2F4"/>
<path transform="translate(346,333)" d="m0 0h274l-1 6-2 4h-253l-20 1-8 4-6 7-3 10 1 10 5 8 6 5 9 3 268 1 3 6v3h-275l-11-4-10-9-6-12-1-4v-10l4-11 6-8 8-6 7-3z" fill="#8DE2F4"/>
<path transform="translate(251,439)" d="m0 0h261l7 2 4 4 1 6-4 7-4 2h-265z" fill="#8DE2F4"/>
<path transform="translate(348,357)" d="m0 0h266l-1 20-1 1h-262l-6-3-4-6 1-6 5-5z" fill="#8DE2F4"/>
<path transform="translate(770,286)" d="m0 0h6v18l-2 62v49l2 44h-36l2-46v-45l-2-64v-11l5-2z" fill="#8DE2F4"/>
<path transform="translate(1735,286)" d="m0 0h5l-2 82v48l2 42-1 1h-35l1-27 1-17v-46l-2-63v-13l9-3z" fill="#8DE2F4"/>
<path transform="translate(189,521)" d="m0 0 263 1 1 3-1 17h-267l-6-7v-6l4-5z" fill="#8DE2F4"/>
<path transform="translate(1167,332)" d="m0 0 2 1 2 22v12l4-4 7-9 9-10 12-8 5-2h6l-1 23-1 15-1 1-19 2-11 4-8 6-1 2 2 49v17l-12 3-21 4v-19l2-34v-19l-4-39-1-9 9-3z" fill="#8DE2F4"/>
<path transform="translate(322,241)" d="m0 0h3l-1 14-4 29-2 4-8-7-2-2h-6l-16 15-108 108-4-2-9-9v-4l8-7 113-113 2-3-1-6-8-8v-3z" fill="#8DE2F4"/>
<path transform="translate(1376,332)" d="m0 0h2v26l-1 17v40l1 19v19l-28 6h-5v-16l2-45-2-38v-21l1-1 26-5z" fill="#8DE2F4"/>
<path transform="translate(183,514)" d="m0 0h3l1 4-1 2 2 1-4 1h-4v2l-5 5-1 8h2v2h2v2l6 1 11 1h3 249l1 3 5 2 1 4-4 4-8-2h-5l-1 1h-257l-8-6-5-8v-10h1l2 9 5 5-3-10-1-7 2-6h2v-2h2l1-3z" fill="#211817"/>
<path transform="translate(182,508)" d="m0 0h269l5 1v2l-8 2-1 4 6 3v1h-233l-25-1-1-2v-5l-9-1-7 3-6 3v-4l7-5z" fill="#211817"/>
<path transform="translate(578,342)" d="m0 0 37 2-1 7-6 2 1 3h-244v-1h5l-1-2h-19l-9 3v2l-4 2-1 8v5l-2 1-2-4v-9l3-7 6-5 9-3 4-2 32-1z" fill="#211817"/>
<path transform="translate(345,377)" d="m0 0h150l10 1 106 1-2 3-1 4-4 1 3 2 2-1v2l2 1h-255l-2-4h2l-1-3-9-3z" fill="#211817"/>
<path transform="translate(468,289)" d="m0 0h85l3 3 2 10 1 8v9h-97l-1-4 3-20z" fill="#8DE2F4"/>
<path transform="translate(318,367)" d="m0 0h2l2 4 3 3 6 9 4 4 13 4 268 1 3 6v3h-275l-11-4-10-9-3-5-2-8z" fill="#93F3FE"/>
<path transform="translate(518,484)" d="m0 0h5l-1 2-9 1-47 1 4 1-1 3-8 2h-6l1 3h-180l-17-1 2-3-9-2-1-2 2-1-3-3z" fill="#211817"/>
<path transform="translate(339,401)" d="m0 0 187 1 13 1-3 2-4 1v2h3v2l-3 1-14-1 10 4 3 2v2l6 2 7 8-2 1-10-8-6-3v-2l-13-1-166-1-5-1 1-2 9-1 2-3-7-2-5-1z" fill="#211817"/>
<path transform="translate(509,113)" d="m0 0h3l5 13 4 11h24l1 4-8 7-11 7 2 9 5 15-2 3-4-2-17-12-7 4-12 9h-4v-6l6-17-2-4-14-10-3-3v-3h26l3-12z" fill="#21201F"/>
<path transform="translate(205,567)" d="m0 0h223l1 2-2 1 2 2-29 2h-180l-13-1-2-1-1-4z" fill="#211817"/>
<path transform="translate(423,103)" d="m0 0 12 1 1 51 1 10h-4l-10-7-9-9-6-10-3-9v-12l4-8 6-5z" fill="#8DE2F4"/>
<path transform="translate(591,103)" d="m0 0 11 1 8 4 4 5 2 7v7l-3 11-5 9-9 10-9 7-5 2 1-62z" fill="#8DE2F4"/>
<path transform="translate(1360,274)" d="m0 0h10l6 3 5 6 2 7-1 10-6 9-8 6-9 1-8-3-6-7-2-5v-10l6-10 8-6z" fill="#8DE2F4"/>
<path transform="translate(354,415)" d="m0 0h56l2 2-54 1-2-1v2l2 1-4 2-6 1 155 1v1h-256l-3-9z" fill="#8DE2F4"/>
<path transform="translate(343,391)" d="m0 0 273 1 3 6v3h-275l-4-2h193l8-1-1-3-74-1h-107l-16-2z" fill="#8DE2F4"/>
<path transform="translate(1447,356)" d="m0 0h8l8 4 4 8v12l-3 3-35 4h-5l1-9 7-13 7-6z" fill="#21201F"/>
<path transform="translate(1071,356)" d="m0 0h8l8 4 3 4 1 4v12l-3 3-35 4h-5l1-8 7-14 7-6z" fill="#21201F"/>
<path transform="translate(465,320)" d="m0 0h91l1 3-1 1 5 3 3 3 19 1v1h-28l-3-3h-7l-3 1-2-1v2l-15 1h-38l-2-1v-2l2-1-2-1-7 1-3-3 2-1-10-2z" fill="#211817"/>
<path transform="translate(356,417)" d="m0 0h56l-1 3 41-1 16 1 10 1 28 1-3 2h-156l1-2 5-1 3-2z" fill="#93F3FE"/>
<path transform="translate(1291,347)" d="m0 0h1v10l-10 45-6 25-4 1-7-29-6-29v-11l3 6 2 14 3 10 3 5 3 8 3-3 4-15h2l-1-3 4-16 3-9 1-8z" fill="#211A19"/>
<path transform="translate(288,476)" d="m0 0h47l3 1 10-1h27l5 2 21 3v1h-117l2-1z" fill="#94F4FF"/>
<path transform="translate(1645,353)" d="m0 0h1v12l-11 50-3 12-4 1-7-32v-12l3 3 5 13v3h3l4-20 6-25z" fill="#211918"/>
<path transform="translate(738,303)" d="m0 0 2 2 1 23 1 6 1 34v45l-2 40h-3l-1-1v-12h1v-9l-1-6 1-16 1-7 1-1h-1l-1-19v-7l2-1-1-1h-1v-24h-1v-15l1-9h-1v-21z" fill="#211B1A"/>
<path transform="translate(447,105)" d="m0 0h1v50l-4-1-3-14-2-2-1 2h-2v-29l3 3 1-2h2l2-5 2 2z" fill="#211817"/>
<path transform="translate(1071,356)" d="m0 0h8l8 4 3 4 1 4v12l-1 1h-5l-2 1-1-4h2v-8l-4-6-8-2-6 3h-3v2h-2l-2 5-3 1-1 9v3l-6 1v-7l7-14 7-6z" fill="#211918"/>
<path transform="translate(578,107)" d="m0 0h2l4 8-1 4 1 3 1 2-1 1 1 3-1 24v13l-7-1v-56z" fill="#211817"/>
<path transform="translate(468,335)" d="m0 0h69l3 1v3l-6 1h-61l-7-1z" fill="#94F4FF"/>
<path transform="translate(523,436)" d="m0 0 5 1 3 3 2 6v7l-3 9-1-4-9 2v2l-161-1v-1l157-1 4-2 3-3 3-1 1-5-4-8z" fill="#212120"/>
<path transform="translate(1593,397)" d="m0 0 2 2 7 31 1 18-2-2-4-13-2-10h-4l-4 7-2 6h-1v-7l8-31z" fill="#211918"/>
<path transform="translate(1447,356)" d="m0 0h8l8 4 4 8v12l-1 1h-7l1-6-1-8-1-3-6-2-5 1-12 6-6 4 1-5 7-8z" fill="#211918"/>
<path transform="translate(862,367)" d="m0 0h8l7 3 3 3 1 14h-2l-4-10-1-3h-3v-2l-10-1-3 3-10 4-1 2-2 17-3 2v-22l5-5 10-4z" fill="#211918"/>
<path transform="translate(1215,334)" d="m0 0 3 1 7 25 4 14-1 10-2-2v-4h-2l-1-4v-8h-2l-2-7h-2l-2 9-2 1v-11l1-18z" fill="#211918"/>
<path transform="translate(502,276)" d="m0 0h13v2l6 1 1 5-1 1 7 1v1h-55v-1l21-1v-3l4-3 4-1z" fill="#211817"/>
<path transform="translate(1567,395)" d="m0 0h2v7l-7 22-2 4-3-1-5-21v-9l1 2 3 1 2 5v3h2l4-8 1-3h2z" fill="#211918"/>
<path transform="translate(740,368)" d="m0 0 2 1v65l-1 19h-3l-1-1v-12h1v-9l-1-6 1-16 1-7 1-1h-1l-1-19v-7l2-1z" fill="#211A19"/>
<path transform="translate(1833,315)" d="m0 0h18l11 4 10 9 4 7-1 5-5-4-5-9-7-6-10-2h-16l-8 4h-3v-3l8-4z" fill="#211A19"/>
<path transform="translate(1056,404)" d="m0 0h13l3 2-9 2h-4l-2 4 1 6 1 4h2v2h2l1 5-5-1-5-6-4-9-1-2v-6z" fill="#211A19"/>
<path transform="translate(1433,404)" d="m0 0h13l3 2-7 2-8 1-2 4 3 8 4 5 1 3-6-2-4-5-5-11v-6z" fill="#211A19"/>
<path transform="translate(1506,346)" d="m0 0h2l8 28v17l-2-4-3-8-5-23h-1l-1-7z" fill="#211918"/>
<path transform="translate(1170,334)" d="m0 0 3 3 3 14 1 3h2l-2 7-4 6h-2l-1-12z" fill="#211918"/>
<path transform="translate(777,292)" d="m0 0h1l1 11v26l-2 32-2 4v-20l1-40z" fill="#211817"/>
<path transform="translate(1871,451)" d="m0 0 5 5 13 18 2 3-1 3-5-5-8-9-2-5-10-4v-3z" fill="#211A19"/>
<path transform="translate(1845,415)" d="m0 0 3 1 9 13 1 3-1 1-16 1-5-1v-1l7-1v-2h2l1-3h3l-1-4h-2l-2-6z" fill="#211918"/>
<path transform="translate(807,353)" d="m0 0h2l1 13 1 6 1 16v12l-1 7-2 1v-21l-1-1-1-13v-2l-1-13-1-2z" fill="#211817"/>
<path transform="translate(543,137)" d="m0 0 3 1-1 4-10 8h-4l-1-8-6-1-2-2z" fill="#211918"/>
<path transform="translate(1702,297)" d="m0 0h1l1 9 1 37-1 5-2-1-1-7-1-33z" fill="#211817"/>
<path transform="translate(514,168)" d="m0 0 7 1 2 1 1-2 4 1 2 1v2h2l2 7-2 3-4-2-14-10z" fill="#211918"/>
<path transform="translate(740,368)" d="m0 0 2 1v45h-4l1-12 1-1h-1l-1-19v-7l2-1z" fill="#211817"/>
<path transform="translate(839,332)" d="m0 0 3 4 1 3v7l6 2-1 4-6 7h-2l-1-11z" fill="#211918"/>
<path transform="translate(475,138)" d="m0 0h11l7 1-4 8v3l-4-1-9-7z" fill="#211918"/>
<path transform="translate(326,365)" d="m0 0 3 1 4 10 6 7 6 4 1 3-7-1-8-7-4-7z" fill="#211918"/>
<path transform="translate(880,393)" d="m0 0h1v22l-1 22-2 4h-1v-13l1-9-1-10 1-11z" fill="#211817"/>
<path transform="translate(547,436)" d="m0 0 4 5 1 2v15l-3 6h-2l-1 3-1-4 2-7z" fill="#211918"/>
<path transform="translate(808,416)" d="m0 0h1l1 14v22h-2l-1 2-1-9v-8l1-13z" fill="#211817"/>
<path transform="translate(1360,272)" d="m0 0h9l8 4 5 5 3 4v13l-3 3v-11l-3-9-6-5-3-1-12-1z" fill="#211B1A"/>
<path transform="translate(1397,385)" d="m0 0h2v11h-2v24l-2-2-1-6v-13l2-13z" fill="#211817"/>
<path transform="translate(541,76)" d="m0 0h14l14 2v1h-47v-1z" fill="#211817"/>
<path transform="translate(509,113)" d="m0 0h3l2 5 1 8-4 1-3-2-2 1 1-9z" fill="#211918"/>
<path transform="translate(1343,345)" d="m0 0h1l1 18v26l-2-3-1-5v-29z" fill="#211817"/>
<path transform="translate(981,378)" d="m0 0h1l1 35v7l-2 1v-5h-2v-11l1-2z" fill="#211918"/>
<path transform="translate(557,293)" d="m0 0 2 1v2h2l2 12v6l-3 1-2-5-1-8z" fill="#211918"/>
<path transform="translate(492,167)" d="m0 0 1 4 4 2-1 5-4 3h-4v-6z" fill="#211918"/>
<path transform="translate(1188,375)" d="m0 0h6l-2 3-9 4h-3v2l-6 3v-4l11-7z" fill="#211918"/>
<path transform="translate(615,114)" d="m0 0 4 2 1 7-2 11-1 2-2-1z" fill="#211A19"/>
<path transform="translate(1446,427)" d="m0 0 1 2h12l2 2-5 2h-11l-4-2v-2z" fill="#211A19"/>
<path transform="translate(752,460)" d="m0 0h20v2l-2 1h-21l-2-2z" fill="#211817"/>
<path transform="translate(481,212)" d="m0 0 5 1 14 10 2 2-1 4-3-1v-2l-3-1v-2h-2l-1-4-5-2-6-4z" fill="#211A19"/>
<path transform="translate(984,318)" d="m0 0 2 3v11l2 3 3 2-9 1v-9l1-10z" fill="#211A19"/>
<path transform="translate(161,548)" d="m0 0 4 2 2 2 6 1v2h3l1 4-4 1-6-4-6-7z" fill="#94F4FF"/>
<path transform="translate(1259,359)" d="m0 0 3 6 3 21-2 4-4-20z" fill="#211B1A"/>
<path transform="translate(1291,347)" d="m0 0h1v10l-1 5-4 1-1 4-1-2 3-9 1-8z" fill="#211918"/>
<path transform="translate(1315,382)" d="m0 0h2l-1 8-3 10-3 1 1-10 3-7z" fill="#211A19"/>
<path transform="translate(1070,428)" d="m0 0h2v2l8-1 4 1v2l-4 1h-11l-3-1 1-3z" fill="#211A19"/>
<path transform="translate(281,255)" d="m0 0 5 1 3 4-1 5-5-1z" fill="#211918"/>
<path transform="translate(1830,426)" d="m0 0 1 3 4 2 6 2h13l-4 2h-11l-11-4-2-1v-2h4z" fill="#211D1C"/>
<path transform="translate(458,185)" d="m0 0h2l7 11 3 3v2l-4-1-2-2-5-8-2-4z" fill="#211A19"/>
<path transform="translate(1871,403)" d="m0 0h5l2 3-1 6h-3l-3-4z" fill="#211918"/>
<path transform="translate(516,419)" d="m0 0 6 1 2 5h-7l-5-2z" fill="#94F4FF"/>
<path transform="translate(738,303)" d="m0 0 2 2v13l-1 2h-2v-16z" fill="#211A19"/>
<path transform="translate(612,142)" d="m0 0 1 2-6 9h-2l-1 3h-2l-1 2 1-5 7-9z" fill="#211A19"/>
<path transform="translate(1703,432)" d="m0 0h1v19h-3l1-17z" fill="#211817"/>
<path transform="translate(1704,385)" d="m0 0h2v19l-2-1-1-13z" fill="#211817"/>
<path transform="translate(1719,460)" d="m0 0h14l2 2-9 1-8-1z" fill="#211817"/>
<path transform="translate(532,418)" d="m0 0 6 3 6 8-5-2-7-6-2-2z" fill="#211B1A"/>
<path transform="translate(944,360)" d="m0 0h5v9l-2-1v-2h-2l-2-5z" fill="#211817"/>
<path transform="translate(599,102)" d="m0 0 7 1 6 4 1 3-5-2-6-3v-2z" fill="#211A19"/>
<path transform="translate(1181,378)" d="m0 0 2 1-3 5-6 3v-4z" fill="#211B1A"/>
<path transform="translate(467,324)" d="m0 0h7v4h-8l-2-2z" fill="#211817"/>
<path transform="translate(1483,445)" d="m0 0 2 1-2 3h-2v2l-5 4-3-1 4-4z" fill="#211A19"/>
<path transform="translate(944,368)" d="m0 0 2 4 3 1-1 3h-3l1 6-2-2z" fill="#211817"/>
<path transform="translate(615,358)" d="m0 0 3 3-1 10-2 1-1-11z" fill="#211817"/>
</svg>
